<?xml version="1.0" standalone="no"?>
<!DOCTYPE svg PUBLIC "-//W3C//DTD SVG 20010904//EN"
 "http://www.w3.org/TR/2001/REC-SVG-20010904/DTD/svg10.dtd">
<svg version="1.0" xmlns="http://www.w3.org/2000/svg"
 width="300.000000pt" height="300.000000pt" viewBox="0 0 300.000000 300.000000"
 preserveAspectRatio="xMidYMid meet">
<metadata>
Created by potrace 1.10, written by Peter Selinger 2001-2011
</metadata>
<g transform="translate(0.000000,300.000000) scale(0.100000,-0.100000)"
fill="#000000" stroke="none">
<path d="M1413 2049 c-79 -56 -83 -57 -83 -34 0 22 -4 25 -35 25 l-35 0 -1
-47 0 -48 -96 -61 -95 -61 -2 -52 c-1 -34 2 -50 10 -47 6 2 104 66 217 141
l207 137 0 54 c0 30 -1 54 -2 53 -2 0 -40 -27 -85 -60z m37 -27 c0 -5 -39 -35
-87 -67 -49 -32 -100 -67 -115 -77 -31 -21 -38 -22 -38 -8 0 6 6 10 14 10 19
0 66 50 66 70 0 25 23 43 38 28 8 -8 25 -2 64 20 62 36 58 34 58 24z"/>
<path d="M1580 2041 c64 -51 286 -214 298 -218 6 -3 12 -9 12 -14 0 -18 -26
-8 -91 34 -72 46 -154 90 -175 93 -7 1 -26 11 -41 22 -36 25 -81 48 -68 34 6
-6 101 -69 213 -141 l202 -130 0 52 -1 52 -126 80 c-191 122 -250 158 -223
136z"/>
<path d="M1450 1890 c0 -15 7 -20 25 -20 18 0 25 5 25 20 0 15 -7 20 -25 20
-18 0 -25 -5 -25 -20z"/>
<path d="M1510 1890 c0 -13 7 -20 20 -20 13 0 20 7 20 20 0 13 -7 20 -20 20
-13 0 -20 -7 -20 -20z"/>
<path d="M1450 1836 c0 -21 5 -26 26 -26 21 0 25 4 22 23 -2 14 -11 23 -25 25
-19 3 -23 -1 -23 -22z"/>
<path d="M1510 1835 c0 -18 5 -25 20 -25 15 0 20 7 20 25 0 18 -5 25 -20 25
-15 0 -20 -7 -20 -25z"/>
<path d="M1257 1738 c-8 -13 -47 -81 -87 -153 -40 -71 -82 -142 -92 -157 -10
-14 -18 -29 -18 -32 0 -3 25 -6 55 -6 54 0 55 1 75 39 19 39 22 40 76 43 52 3
56 5 76 40 12 21 20 39 17 41 -2 2 -29 1 -59 -2 -47 -5 -51 -8 -30 -15 14 -4
28 -8 33 -7 4 1 7 -4 7 -9 0 -5 -8 -11 -17 -12 -10 -1 -25 -2 -33 -4 -8 -1
-23 -2 -32 -3 -18 -1 -60 -39 -77 -68 -7 -14 -13 -15 -21 -7 -9 9 6 47 59 154
39 78 76 149 82 156 17 20 83 18 102 -3 8 -10 41 -67 73 -128 59 -113 84 -151
84 -126 0 16 -124 236 -148 264 -10 12 -30 17 -63 17 -40 0 -51 -4 -62 -22z"/>
<path d="M1550 1598 c1 -96 5 -140 15 -158 22 -38 19 -40 -31 -21 -46 18 -53
27 -131 164 -7 12 -18 26 -26 32 -7 5 -22 22 -31 38 -23 34 -31 34 -46 -3 -7
-16 -16 -28 -20 -25 -4 2 -12 -7 -18 -20 -22 -47 6 -34 33 16 l27 51 43 -73
c23 -41 58 -104 79 -141 l37 -68 81 0 81 0 -6 115 c-3 63 -4 115 -2 115 2 0
23 -31 46 -70 25 -43 48 -70 58 -70 11 0 32 26 57 70 21 38 41 70 44 70 3 0 3
-52 2 -115 l-4 -115 46 0 46 0 0 153 0 152 -31 18 c-51 29 -64 23 -111 -53
-24 -38 -46 -69 -49 -70 -4 0 -25 32 -48 70 l-42 70 -49 0 -50 0 0 -132z m93
70 c8 -13 5 -22 -14 -42 -13 -14 -27 -26 -31 -26 -10 0 -10 74 -1 84 11 11 35
3 46 -16z m235 10 c12 -12 17 -78 6 -78 -3 0 -19 11 -34 24 -26 22 -27 25 -14
45 17 24 25 26 42 9z"/>
<path d="M1030 1133 c-36 -81 -66 -151 -68 -155 -2 -4 14 -8 36 -8 37 0 41 3
52 35 l12 35 68 0 68 0 12 -35 c11 -32 15 -35 51 -35 21 0 39 3 39 8 0 4 -29
72 -65 152 l-65 145 -37 3 -38 3 -65 -148z m128 10 l20 -53 -44 0 c-24 0 -44
4 -44 9 0 12 41 103 45 99 2 -2 12 -27 23 -55z"/>
<path d="M1330 1125 l0 -155 41 0 42 0 -6 90 c-4 50 -5 90 -3 90 2 0 37 -40
77 -90 65 -79 78 -90 107 -90 l32 0 0 155 0 155 -41 0 -40 0 3 -90 c2 -50 1
-90 -2 -90 -3 1 -36 41 -75 90 -63 80 -73 90 -102 90 l-33 0 0 -155z m72 88
c24 -21 22 -34 -7 -55 -23 -17 -24 -17 -30 3 -7 22 1 69 12 69 3 0 15 -7 25
-17z m178 -143 c0 -46 -19 -54 -43 -17 -14 22 -14 24 11 40 15 9 28 17 30 17
1 0 2 -18 2 -40z"/>
<path d="M1680 1125 l0 -155 35 0 34 0 3 92 3 91 39 -71 c53 -97 68 -96 122 6
23 42 39 83 37 90 -5 14 14 42 28 42 5 0 9 -16 9 -35 0 -26 -3 -33 -15 -29
-13 5 -15 -9 -15 -90 l0 -96 35 0 35 0 0 155 0 155 -34 0 c-32 0 -36 -5 -86
-90 -29 -49 -54 -90 -55 -90 -1 0 -26 41 -54 90 -50 86 -54 90 -87 90 l-34 0
0 -155z m70 79 c13 -23 12 -27 -5 -37 -11 -6 -22 -11 -24 -11 -7 -1 -11 38 -5
57 7 24 18 21 34 -9z"/>
<path d="M960 875 c0 -42 13 -60 23 -32 3 10 9 10 26 0 27 -17 26 -18 26 20 0
43 -11 57 -46 57 -28 0 -29 -2 -29 -45z m60 10 c0 -8 -9 -15 -20 -15 -11 0
-20 7 -20 15 0 8 9 15 20 15 11 0 20 -7 20 -15z"/>
<path d="M1080 875 c0 -45 0 -45 35 -45 19 0 35 5 35 10 0 6 -11 10 -25 10
-31 0 -33 17 -2 23 l22 4 -22 2 c-31 2 -29 21 2 21 14 0 25 5 25 10 0 6 -16
10 -35 10 -35 0 -35 0 -35 -45z"/>
<path d="M1197 878 c-9 -23 -14 -44 -11 -47 4 -3 9 0 11 7 3 6 15 12 28 12 13
0 25 -6 28 -12 2 -7 7 -10 11 -6 9 7 -31 88 -43 88 -4 0 -15 -19 -24 -42z"/>
<path d="M1310 875 c0 -43 1 -45 30 -45 17 0 30 5 30 10 0 6 -9 10 -20 10 -16
0 -20 7 -20 35 0 19 -4 35 -10 35 -5 0 -10 -20 -10 -45z"/>
<path d="M1460 875 l0 -45 41 0 c24 0 38 4 34 10 -3 6 -17 10 -31 10 -33 0
-31 18 4 23 l27 4 -27 2 c-35 1 -37 21 -3 21 14 0 25 5 25 10 0 6 -16 10 -35
10 -35 0 -35 0 -35 -45z"/>
<path d="M1577 913 c-16 -15 -6 -41 18 -47 34 -9 23 -25 -12 -18 -22 3 -25 2
-17 -8 16 -16 69 -9 69 10 0 8 -10 19 -22 25 -28 12 -30 25 -3 25 11 0 20 5
20 10 0 11 -43 14 -53 3z"/>
<path d="M1660 910 c0 -5 7 -10 15 -10 10 0 15 -11 15 -35 0 -19 5 -35 10 -35
6 0 10 16 10 35 0 24 5 35 15 35 8 0 15 5 15 10 0 6 -18 10 -40 10 -22 0 -40
-4 -40 -10z"/>
<path d="M1770 878 c-20 -42 -19 -61 2 -40 15 15 48 16 48 2 0 -5 7 -10 15
-10 12 0 11 8 -7 45 -12 25 -25 45 -30 45 -4 0 -17 -19 -28 -42z"/>
<path d="M1860 910 c0 -5 7 -10 15 -10 10 0 15 -11 15 -35 0 -19 5 -35 10 -35
6 0 10 16 10 35 0 24 5 35 15 35 8 0 15 5 15 10 0 6 -18 10 -40 10 -22 0 -40
-4 -40 -10z"/>
<path d="M1970 875 c0 -45 0 -45 35 -45 19 0 35 5 35 10 0 6 -11 10 -25 10
-31 0 -33 17 -2 23 l22 4 -22 2 c-31 2 -29 21 2 21 14 0 25 5 25 10 0 6 -16
10 -35 10 -35 0 -35 0 -35 -45z"/>
</g>
</svg>
